<?xml version="1.0" encoding="UTF-8" standalone="no"?>
<!-- Created with Inkscape (http://www.inkscape.org/) -->

<svg
   version="1.1"
   id="svg1"
   width="209.17691"
   height="40.135605"
   viewBox="0 0 209.17691 40.135605"
   sodipodi:docname="example.svg"
   inkscape:version="1.4.2 (1:1.4.2+202505120737+ebf0e940d0)"
   xmlns:inkscape="http://www.inkscape.org/namespaces/inkscape"
   xmlns:sodipodi="http://sodipodi.sourceforge.net/DTD/sodipodi-0.dtd"
   xmlns="http://www.w3.org/2000/svg"
   xmlns:svg="http://www.w3.org/2000/svg">
  <defs
     id="defs1">
    <linearGradient
       x1="0"
       y1="0"
       x2="0"
       y2="100.00128"
       gradientUnits="userSpaceOnUse"
       id="linearGradient6">
      <stop
         style="stop-opacity:1;stop-color:#383838"
         offset="0"
         id="stop2" />
      <stop
         style="stop-opacity:1;stop-color:#383838"
         offset="0.25"
         id="stop3" />
      <stop
         style="stop-opacity:1;stop-color:#4b4b4b"
         offset="0.5"
         id="stop4" />
      <stop
         style="stop-opacity:1;stop-color:#5e5e5e"
         offset="0.75"
         id="stop5" />
      <stop
         style="stop-opacity:1;stop-color:#5e5e5e"
         offset="1"
         id="stop6" />
    </linearGradient>
    <clipPath
       clipPathUnits="userSpaceOnUse"
       id="clipPath7">
      <path
         d="m 0,2.83466 v 7.36137 C 0,11.7616 1.2691,13.0307 2.83466,13.0307 H 26.2751 V 0 H 2.83466 C 1.2691,0 0,1.2691 0,2.83466 Z"
         transform="matrix(1.3333333,0,0,-1.3333333,198.28267,183.77733)"
         id="path7" />
    </clipPath>
    <linearGradient
       x1="0"
       y1="0"
       x2="0"
       y2="100.00128"
       gradientUnits="userSpaceOnUse"
       id="linearGradient12">
      <stop
         style="stop-opacity:1;stop-color:#0b4f76"
         offset="0"
         id="stop8" />
      <stop
         style="stop-opacity:1;stop-color:#0b4f76"
         offset="0.25"
         id="stop9" />
      <stop
         style="stop-opacity:1;stop-color:#0e699d"
         offset="0.5"
         id="stop10" />
      <stop
         style="stop-opacity:1;stop-color:#1283c4"
         offset="0.75"
         id="stop11" />
      <stop
         style="stop-opacity:1;stop-color:#1283c4"
         offset="1"
         id="stop12" />
    </linearGradient>
    <clipPath
       clipPathUnits="userSpaceOnUse"
       id="clipPath13">
      <path
         d="m 26.2751,0 v 13.0307 h 29.61154 c 1.56557,0 2.83467,-1.2691 2.83467,-2.83467 V 2.83466 C 58.72131,1.2691 57.45221,0 55.88664,0 Z"
         transform="matrix(1.3333333,0,0,-1.3333333,198.28267,183.77733)"
         id="path13" />
    </clipPath>
    <linearGradient
       x1="0"
       y1="0"
       x2="0"
       y2="100.00128"
       gradientUnits="userSpaceOnUse"
       id="linearGradient27">
      <stop
         style="stop-opacity:1;stop-color:#383838"
         offset="0"
         id="stop23" />
      <stop
         style="stop-opacity:1;stop-color:#383838"
         offset="0.25"
         id="stop24" />
      <stop
         style="stop-opacity:1;stop-color:#4b4b4b"
         offset="0.5"
         id="stop25" />
      <stop
         style="stop-opacity:1;stop-color:#5e5e5e"
         offset="0.75"
         id="stop26" />
      <stop
         style="stop-opacity:1;stop-color:#5e5e5e"
         offset="1"
         id="stop27" />
    </linearGradient>
    <clipPath
       clipPathUnits="userSpaceOnUse"
       id="clipPath28">
      <path
         d="m 0,2.83466 v 10.40557 c 0,1.56556 1.2691,2.83467 2.83466,2.83467 H 43.58571 V 0 H 2.83466 C 1.2691,0 0,1.2691 0,2.83466 Z"
         transform="matrix(1.3333333,0,0,-1.3333333,198.28267,206.53867)"
         id="path28" />
    </clipPath>
    <linearGradient
       x1="0"
       y1="0"
       x2="0"
       y2="100.00128"
       gradientUnits="userSpaceOnUse"
       id="linearGradient33">
      <stop
         style="stop-opacity:1;stop-color:#0b4f76"
         offset="0"
         id="stop29" />
      <stop
         style="stop-opacity:1;stop-color:#0b4f76"
         offset="0.25"
         id="stop30" />
      <stop
         style="stop-opacity:1;stop-color:#0e699d"
         offset="0.5"
         id="stop31" />
      <stop
         style="stop-opacity:1;stop-color:#1283c4"
         offset="0.75"
         id="stop32" />
      <stop
         style="stop-opacity:1;stop-color:#1283c4"
         offset="1"
         id="stop33" />
    </linearGradient>
    <clipPath
       clipPathUnits="userSpaceOnUse"
       id="clipPath34">
      <path
         d="M 43.58571,0 V 16.0749 H 154.048 c 1.56557,0 2.83468,-1.26911 2.83468,-2.83467 V 2.83466 C 156.88268,1.2691 155.61357,0 154.048,0 Z"
         transform="matrix(1.3333333,0,0,-1.3333333,198.28267,206.53867)"
         id="path34" />
    </clipPath>
  </defs>
  <sodipodi:namedview
     id="namedview1"
     pagecolor="#ffffff"
     bordercolor="#000000"
     borderopacity="0.25"
     inkscape:showpageshadow="2"
     inkscape:pageopacity="0.0"
     inkscape:pagecheckerboard="0"
     inkscape:deskcolor="#d1d1d1"
     inkscape:zoom="1.1469371"
     inkscape:cx="60.160233"
     inkscape:cy="-6.5391557"
     inkscape:window-width="1920"
     inkscape:window-height="1011"
     inkscape:window-x="0"
     inkscape:window-y="32"
     inkscape:window-maximized="1"
     inkscape:current-layer="g1">
    <inkscape:page
       x="0"
       y="0"
       inkscape:label="1"
       id="page1"
       width="209.17691"
       height="40.135605"
       margin="0"
       bleed="0" />
  </sodipodi:namedview>
  <g
     id="g1"
     inkscape:groupmode="layer"
     inkscape:label="1"
     transform="translate(-198.28267,-166.40306)">
    <path
       id="path1"
       d="m 0,2.83466 v 7.36137 c 0,1.56557 1.2691,2.83467 2.83466,2.83467 h 53.05198 c 1.56557,0 2.83467,-1.2691 2.83467,-2.83467 V 2.83466 C 58.72131,1.2691 57.45221,0 55.88664,0 H 2.83466 C 1.2691,0 0,1.2691 0,2.83466 Z"
       style="fill:#404040;fill-opacity:1;fill-rule:nonzero;stroke:none"
       transform="matrix(1.3333333,0,0,-1.3333333,198.28267,183.77733)" />
    <path
       id="path2"
       d="m 0,2.83466 v 7.36137 C 0,11.7616 1.2691,13.0307 2.83466,13.0307 H 26.2751 V 0 H 2.83466 C 1.2691,0 0,1.2691 0,2.83466 Z"
       style="fill:#f2f2f2;fill-opacity:1;fill-rule:nonzero;stroke:none"
       transform="matrix(1.3333333,0,0,-1.3333333,198.28267,183.77733)" />
    <g
       id="g6"
       clip-path="url(#clipPath7)">
      <path
         d="M 0,0 H 100 V 100 H 0 Z"
         transform="matrix(0.70074667,0,0,-0.34752,180.76205,192.4662)"
         style="fill:url(#linearGradient6);stroke:none"
         id="path6" />
    </g>
    <path
       id="path8"
       d="m 26.2751,0 v 13.0307 h 29.61154 c 1.56557,0 2.83467,-1.2691 2.83467,-2.83467 V 2.83466 C 58.72131,1.2691 57.45221,0 55.88664,0 Z"
       style="fill:#d9d9d9;fill-opacity:1;fill-rule:nonzero;stroke:none"
       transform="matrix(1.3333333,0,0,-1.3333333,198.28267,183.77733)" />
    <g
       id="g12"
       clip-path="url(#clipPath13)">
      <path
         d="M 0,0 H 100 V 100 H 0 Z"
         transform="matrix(0.86533333,0,0,-0.34752,211.68027,192.4662)"
         style="fill:url(#linearGradient12);stroke:none"
         id="path12" />
    </g>
    <g
       id="g13"
       aria-label="TikZ"
       transform="matrix(1.3333333,0,0,1.3333333,202.06267,179.99733)">
      <path
         id="path14"
         d="m 3.8319063,-6.2118672 h 0.890625 c 0.1171875,0 0.234375,0 0.3632812,0 H 6.4100313 V -6.8563984 H 0.36315625 v 0.6445312 H 1.6990938 c 0.1171875,0 0.234375,0 0.3515625,0 H 2.953 v 6.2109375125 h 0.8789063 z m 4.5761718,-0.5625 h -0.890625 v 0.890625 h 0.890625 z m -0.070312,2.3554688 h -0.75 v 4.4179687125 h 0.75 z m 0,0"
         style="fill:#262626;fill-opacity:1;fill-rule:nonzero;stroke:none" />
      <path
         id="path15"
         d="m 12.536008,-2.7079609 2.039062,-1.7109375 h -0.890625 l -2.472656,2.0625 0.972656,-4.5585938 H 11.469602 L 9.9930391,-9.296875e-4 h 0.6914059 l 0.304688,-1.4179687125 0.972656,-0.8085938 1.078125,2.2265625125 h 0.808594 z m 0,0"
         style="fill:#262626;fill-opacity:1;fill-rule:nonzero;stroke:none" />
      <path
         id="path16"
         d="m 20.378781,-6.5048359 v -0.4101563 h -4.828125 v 0.6210938 h 1.992188 c 0.117187,0 0.234375,-0.011719 0.351562,-0.011719 h 1.359375 l -3.832031,5.87109376 v 0.4335937525 h 5.015625 V -0.65717969 h -0.960937 c -0.867188,0 -1.746094,0.0234375 -2.613282,0.0234375 H 16.54675 Z m 0,0"
         style="fill:#262626;fill-opacity:1;fill-rule:nonzero;stroke:none" />
    </g>
    <g
       id="g16"
       aria-label="TikZ"
       transform="matrix(1.3333333,0,0,1.3333333,202.06267,179.40667)">
      <path
         id="path17"
         d="m 3.8319063,-6.21125 h 0.890625 c 0.1171875,0 0.234375,0 0.3632812,0 H 6.4100313 V -6.8557813 H 0.36315625 V -6.21125 H 1.6990938 c 0.1171875,0 0.234375,0 0.3515625,0 H 2.953 v 6.2109375 h 0.8789063 z m 4.5761718,-0.5625 h -0.890625 v 0.890625 h 0.890625 z m -0.070312,2.3554687 h -0.75 v 4.4179688 h 0.75 z m 0,0"
         style="fill:#ffffff;fill-opacity:1;fill-rule:nonzero;stroke:none" />
      <path
         id="path18"
         d="m 12.536008,-2.7073438 2.039062,-1.7109375 h -0.890625 l -2.472656,2.0625 0.972656,-4.5585937 H 11.469602 L 9.9930391,-3.125e-4 h 0.6914059 l 0.304688,-1.4179688 0.972656,-0.8085937 1.078125,2.2265625 h 0.808594 z m 0,0"
         style="fill:#ffffff;fill-opacity:1;fill-rule:nonzero;stroke:none" />
      <path
         id="path19"
         d="M 20.378781,-6.5042188 V -6.914375 h -4.828125 v 0.6210937 h 1.992188 c 0.117187,0 0.234375,-0.011719 0.351562,-0.011719 h 1.359375 L 15.42175,-0.43390625 V -3.125e-4 h 5.015625 v -0.65625 h -0.960937 c -0.867188,0 -1.746094,0.0234375 -2.613282,0.0234375 H 16.54675 Z m 0,0"
         style="fill:#ffffff;fill-opacity:1;fill-rule:nonzero;stroke:none" />
    </g>
    <path
       id="path20"
       d="m 3.4214141,-4.2782734 c -0.5273438,-0.234375 -0.9257813,-0.3164063 -1.4414063,-0.3164063 -0.2460937,0 -1.65234374,0 -1.65234374,1.3007813 0,0.4921875 0.29296875,0.8085937 0.5390625,0.9960937 0.30468754,0.2226563 0.52734374,0.2695313 1.07812504,0.375 0.3515625,0.070312 0.9375,0.1875 0.9375,0.7148438 0,0.69140621 -0.7851563,0.69140621 -0.9375,0.69140621 -0.8085938,0 -1.37109379,-0.375 -1.54687504,-0.49218751 l -0.1171875,0.67968751 c 0.31640625,0.1640625 0.86718754,0.43359375 1.67578124,0.43359375 0.1757813,0 0.7265625,0 1.1484375,-0.31640625 0.3164063,-0.234375 0.4804688,-0.6328125 0.4804688,-1.06640621 0,-0.5507813 -0.3632813,-0.8789063 -0.3867188,-0.9140625 -0.3867187,-0.3515625 -0.65625,-0.4101563 -1.1601562,-0.5039063 -0.5390625,-0.1054687 -1.0078125,-0.1992187 -1.0078125,-0.6914062 0,-0.6210938 0.7265625,-0.6210938 0.8554687,-0.6210938 0.3164063,0 0.84375,0.046875 1.40625,0.3867188 z m 4.734375,1.3125 c 0,-0.65625 -0.1523438,-1.5703125 -1.3710938,-1.5703125 -0.609375,0 -1.0898437,0.3164062 -1.40625,0.7148437 v -3.09375 h -0.75 V -9.296875e-4 H 5.4018828 V -2.4384297 c 0,-0.65625 0.2460938,-1.4882812 1.0078125,-1.4882812 0.9609375,0 0.9609375,0.703125 0.9609375,1.03125 V -9.296875e-4 H 8.1557891 Z M 10.596219,-6.7743672 H 9.7055937 v 0.890625 h 0.8906253 z m -0.07031,2.3554688 H 9.7759062 v 4.4179687125 h 0.7499998 z m 4.945313,2.2382812 c 0,-0.3398437 -0.01172,-1.0898437 -0.398438,-1.6875 -0.410156,-0.6210937 -1.019531,-0.7265625 -1.371094,-0.7265625 -1.113281,0 -2.003906,1.0546875 -2.003906,2.34375 0,1.31250001 0.949219,2.35546876 2.144531,2.35546876 0.632813,0 1.195313,-0.234375 1.59375,-0.515625 L 15.36575,-1.0556172 c -0.621094,0.51562501 -1.277344,0.55078126 -1.511719,0.55078126 -0.796875,0 -1.429687,-0.70312496 -1.464844,-1.67578126 z m -3.023438,-0.5507812 c 0.152344,-0.7617188 0.679688,-1.2539063 1.253906,-1.2539063 0.515625,0 1.066407,0.3398438 1.195313,1.2539063 z m 4.883789,-4.1835938 h -0.75 v 6.9140625125 h 0.75 z m 5.147461,0 h -0.75 v 2.9296875 c -0.527344,-0.4335937 -1.078125,-0.5507812 -1.453125,-0.5507812 -0.984375,0 -1.757812,1.0429687 -1.757812,2.3203125 0,1.31249996 0.761718,2.32031246 1.710937,2.32031246 0.328125,0 0.914063,-0.08203125 1.476563,-0.62109375 v 0.5156250025 h 0.773437 z m -0.773437,5.53125 c 0,0.140625 -0.01172,0.3164063 -0.328125,0.60937501 -0.234375,0.19921875 -0.480469,0.26953125 -0.738282,0.26953125 -0.621093,0 -1.347656,-0.45703125 -1.347656,-1.69921876 0,-1.3125 0.855469,-1.7226562 1.441406,-1.7226562 0.445313,0 0.75,0.234375 0.972657,0.5507812 z m 5.018554,-2.8945312 c -0.527343,-0.234375 -0.925781,-0.3164063 -1.441406,-0.3164063 -0.246094,0 -1.652344,0 -1.652344,1.3007813 0,0.4921875 0.292969,0.8085937 0.539063,0.9960937 0.304687,0.2226563 0.527344,0.2695313 1.078125,0.375 0.351562,0.070312 0.9375,0.1875 0.9375,0.7148438 0,0.69140621 -0.785156,0.69140621 -0.9375,0.69140621 -0.808594,0 -1.371094,-0.375 -1.546875,-0.49218751 l -0.117188,0.67968751 c 0.316407,0.1640625 0.867188,0.43359375 1.675782,0.43359375 0.175781,0 0.726562,0 1.148437,-0.31640625 0.316406,-0.234375 0.480469,-0.6328125 0.480469,-1.06640621 0,-0.5507813 -0.363281,-0.8789063 -0.386719,-0.9140625 -0.386719,-0.3515625 -0.65625,-0.4101563 -1.160156,-0.5039063 -0.539063,-0.1054687 -1.007813,-0.1992187 -1.007813,-0.6914062 0,-0.6210938 0.726563,-0.6210938 0.855469,-0.6210938 0.316406,0 0.84375,0.046875 1.40625,0.3867188 z m 0,0"
       style="fill:#07344e;fill-opacity:1;fill-rule:nonzero;stroke:none"
       aria-label="shields"
       transform="matrix(1.3333333,0,0,1.3333333,236.63733,179.99733)" />
    <path
       id="path21"
       d="m 3.4214141,-4.2776563 c -0.5273438,-0.234375 -0.9257813,-0.3164062 -1.4414063,-0.3164062 -0.2460937,0 -1.65234374,0 -1.65234374,1.3007812 0,0.4921875 0.29296875,0.8085938 0.5390625,0.9960938 0.30468754,0.2226562 0.52734374,0.2695312 1.07812504,0.375 0.3515625,0.070312 0.9375,0.1875 0.9375,0.7148437 0,0.6914063 -0.7851563,0.6914063 -0.9375,0.6914063 -0.8085938,0 -1.37109379,-0.375 -1.54687504,-0.4921875 l -0.1171875,0.6796875 c 0.31640625,0.1640625 0.86718754,0.43359375 1.67578124,0.43359375 0.1757813,0 0.7265625,0 1.1484375,-0.31640625 0.3164063,-0.234375 0.4804688,-0.6328125 0.4804688,-1.0664063 0,-0.5507812 -0.3632813,-0.8789062 -0.3867188,-0.9140625 C 2.8120391,-2.5432813 2.5425078,-2.601875 2.0386016,-2.695625 1.4995391,-2.8010938 1.0307891,-2.8948438 1.0307891,-3.3870313 c 0,-0.6210937 0.7265625,-0.6210937 0.8554687,-0.6210937 0.3164063,0 0.84375,0.046875 1.40625,0.3867187 z m 4.734375,1.3125 c 0,-0.65625 -0.1523438,-1.5703125 -1.3710938,-1.5703125 -0.609375,0 -1.0898437,0.3164063 -1.40625,0.7148438 v -3.09375 h -0.75 v 6.9140625 h 0.7734375 v -2.4375 c 0,-0.65625 0.2460938,-1.4882813 1.0078125,-1.4882813 0.9609375,0 0.9609375,0.703125 0.9609375,1.03125 V -3.125e-4 H 8.1557891 Z M 10.596219,-6.77375 H 9.7055937 v 0.890625 h 0.8906253 z m -0.07031,2.3554687 H 9.7759062 V -3.125e-4 H 10.525906 Z M 15.471219,-2.18 c 0,-0.3398438 -0.01172,-1.0898438 -0.398438,-1.6875 -0.410156,-0.6210938 -1.019531,-0.7265625 -1.371094,-0.7265625 -1.113281,0 -2.003906,1.0546875 -2.003906,2.34375 0,1.3125 0.949219,2.35546875 2.144531,2.35546875 0.632813,0 1.195313,-0.234375 1.59375,-0.515625 L 15.36575,-1.055 c -0.621094,0.515625 -1.277344,0.55078125 -1.511719,0.55078125 -0.796875,0 -1.429687,-0.70312505 -1.464844,-1.67578125 z m -3.023438,-0.5507813 c 0.152344,-0.7617187 0.679688,-1.2539062 1.253906,-1.2539062 0.515625,0 1.066407,0.3398437 1.195313,1.2539062 z M 17.33157,-6.914375 h -0.75 v 6.9140625 h 0.75 z m 5.147461,0 h -0.75 v 2.9296875 c -0.527344,-0.4335938 -1.078125,-0.5507813 -1.453125,-0.5507813 -0.984375,0 -1.757812,1.0429688 -1.757812,2.3203125 0,1.31250005 0.761718,2.32031255 1.710937,2.32031255 0.328125,0 0.914063,-0.08203125 1.476563,-0.62109375 v 0.515625 h 0.773437 z m -0.773437,5.53125 c 0,0.140625 -0.01172,0.3164062 -0.328125,0.609375 -0.234375,0.19921875 -0.480469,0.26953125 -0.738282,0.26953125 -0.621093,0 -1.347656,-0.45703125 -1.347656,-1.69921875 0,-1.3125 0.855469,-1.7226563 1.441406,-1.7226563 0.445313,0 0.75,0.234375 0.972657,0.5507813 z m 5.018554,-2.8945313 c -0.527343,-0.234375 -0.925781,-0.3164062 -1.441406,-0.3164062 -0.246094,0 -1.652344,0 -1.652344,1.3007812 0,0.4921875 0.292969,0.8085938 0.539063,0.9960938 0.304687,0.2226562 0.527344,0.2695312 1.078125,0.375 0.351562,0.070312 0.9375,0.1875 0.9375,0.7148437 0,0.6914063 -0.785156,0.6914063 -0.9375,0.6914063 -0.808594,0 -1.371094,-0.375 -1.546875,-0.4921875 l -0.117188,0.6796875 c 0.316407,0.1640625 0.867188,0.43359375 1.675782,0.43359375 0.175781,0 0.726562,0 1.148437,-0.31640625 0.316406,-0.234375 0.480469,-0.6328125 0.480469,-1.0664063 0,-0.5507812 -0.363281,-0.8789062 -0.386719,-0.9140625 -0.386719,-0.3515625 -0.65625,-0.4101562 -1.160156,-0.5039062 -0.539063,-0.1054688 -1.007813,-0.1992188 -1.007813,-0.6914063 0,-0.6210937 0.726563,-0.6210937 0.855469,-0.6210937 0.316406,0 0.84375,0.046875 1.40625,0.3867187 z m 0,0"
       style="fill:#ffffff;fill-opacity:1;fill-rule:nonzero;stroke:none"
       aria-label="shields"
       transform="matrix(1.3333333,0,0,1.3333333,236.63733,179.40667)" />
    <path
       id="path22"
       d="m 0,2.83466 v 10.40557 c 0,1.56556 1.2691,2.83467 2.83466,2.83467 h 151.21336 c 1.56557,0 2.83467,-1.26911 2.83467,-2.83467 V 2.83466 C 156.88269,1.2691 155.61359,0 154.04802,0 H 2.83466 C 1.2691,0 0,1.2691 0,2.83466 Z"
       style="fill:#404040;fill-opacity:1;fill-rule:nonzero;stroke:none"
       transform="matrix(1.3333333,0,0,-1.3333333,198.28267,206.53867)" />
    <path
       id="path23"
       d="m 0,2.83466 v 10.40557 c 0,1.56556 1.2691,2.83467 2.83466,2.83467 H 43.58571 V 0 H 2.83466 C 1.2691,0 0,1.2691 0,2.83466 Z"
       style="fill:#f2f2f2;fill-opacity:1;fill-rule:nonzero;stroke:none"
       transform="matrix(1.3333333,0,0,-1.3333333,198.28267,206.53867)" />
    <g
       id="g27"
       clip-path="url(#clipPath28)">
      <path
         d="M 0,0 H 100 V 100 H 0 Z"
         transform="matrix(1.1624133,0,0,-0.42870667,169.21913,217.2574)"
         style="fill:url(#linearGradient27);stroke:none"
         id="path27" />
    </g>
    <path
       id="path29"
       d="M 43.58571,0 V 16.0749 H 154.048 c 1.56557,0 2.83468,-1.26911 2.83468,-2.83467 V 2.83466 C 156.88268,1.2691 155.61357,0 154.048,0 Z"
       style="fill:#d9d9d9;fill-opacity:1;fill-rule:nonzero;stroke:none"
       transform="matrix(1.3333333,0,0,-1.3333333,198.28267,206.53867)" />
    <g
       id="g33"
       clip-path="url(#clipPath34)">
      <path
         d="M 0,0 H 100 V 100 H 0 Z"
         transform="matrix(3.0216,0,0,-0.42870667,180.84825,217.2574)"
         style="fill:url(#linearGradient33);stroke:none"
         id="path33" />
    </g>
    <path
       id="path35"
       d="m 4.2772188,-7.827875 c -2.3671875,0 -4.2773438,1.9101562 -4.2773438,4.2773437 0,1.875 1.2304688,3.4804688 2.9179688,4.05468755 C 3.1405,0.5393125 3.2225313,0.3986875 3.2225313,0.29321875 c 0,-0.1171875 -0.011719,-0.4453125 -0.011719,-0.796875 0,0 -1.1953125,0.24609375 -1.453125,-0.51562505 0,0 -0.1875,-0.4804687 -0.4570312,-0.609375 0,0 -0.39843755,-0.2695312 0.023437,-0.2695312 0,0 0.4335937,0.035156 0.65625,0.4453125 0.375,0.65625 0.984375,0.46875 1.2421875,0.3515625 0.035156,-0.2578125 0.140625,-0.4570313 0.2695312,-0.5742188 C 2.5428438,-1.781 1.54675,-2.1442813 1.54675,-3.7731875 c 0,-0.46875 0.1640625,-0.84375 0.4335938,-1.1484375 -0.035156,-0.1054688 -0.1757813,-0.5507813 0.046875,-1.1367188 0.3632812,-0.1054687 1.171875,0.4453125 1.171875,0.4453125 0.3398437,-0.09375 0.7148437,-0.1523437 1.078125,-0.1523437 0.3515625,0 0.7265625,0.058594 1.0664062,0.1523437 0,0 0.796875,-0.5507812 1.1601563,-0.4453125 0.234375,0.5859375 0.09375,1.03125 0.046875,1.1367188 0.2695312,0.3046875 0.4453125,0.6796875 0.4453125,1.1484375 0,1.640625 -1.0078125,1.9921875 -1.9570313,2.0976562 C 5.203,-1.546625 5.3319063,-1.2888125 5.3319063,-0.890375 v 1.18359375 c 0,0.10546875 0.070312,0.24609375 0.28125,0.2109375 C 7.312375,-0.0700625 8.531125,-1.6755313 8.531125,-3.5505313 c 0,-2.3671875 -1.8984375,-4.2773437 -4.2539062,-4.2773437 z m -2.6601563,6.1289062 c -0.011719,0.023437 -0.046875,0.035156 -0.070312,0.011719 -0.035156,-0.011719 -0.046875,-0.046875 -0.046875,-0.070312 0.011719,-0.011719 0.046875,-0.011719 0.070312,0 0.035156,0.011719 0.058594,0.046875 0.046875,0.058594 z M 1.7928438,-1.49975 c -0.023437,0.011719 -0.058594,0 -0.09375,-0.023437 -0.023437,-0.035156 -0.023437,-0.070312 0,-0.09375 0.011719,-0.011719 0.058594,-0.011719 0.082031,0.023437 0.035156,0.035156 0.035156,0.070312 0.011719,0.09375 z m 0.1640625,0.2460937 c -0.023437,0.023437 -0.058594,0 -0.09375,-0.046875 -0.035156,-0.035156 -0.035156,-0.070312 0,-0.09375 0.035156,-0.023437 0.070312,-0.011719 0.09375,0.035156 0.023437,0.035156 0.023437,0.082031 0,0.105469 z M 2.1912813,-1.031 c -0.023437,0.0351562 -0.070312,0.0351562 -0.1054688,0 -0.046875,-0.035156 -0.058594,-0.09375 -0.035156,-0.1171875 0.023437,-0.023437 0.082031,-0.011719 0.1171875,0.023437 0.035156,0.023437 0.046875,0.082031 0.023437,0.093751 z m 0.3164062,0.140625 c -0.011719,0.0351563 -0.070312,0.0585938 -0.1054687,0.046875 -0.046875,-0.0117188 -0.082031,-0.0585938 -0.070312,-0.09375 0.011719,-0.0234375 0.058594,-0.046875 0.09375,-0.0351563 0.058594,0.0117188 0.09375,0.0585938 0.082031,0.0820313 z M 2.85925,-0.8552187 c 0,0.0234375 -0.035156,0.0585938 -0.09375,0.0585938 -0.058594,0.0117188 -0.09375,-0.0234375 -0.09375,-0.0585938 0,-0.0351563 0.035156,-0.0585938 0.082031,-0.0585938 0.058594,-0.0117188 0.1054687,0.0117188 0.105469,0.0585938 z m 0.3164063,-0.0585938 c 0.011719,0.0234375 -0.023437,0.0703125 -0.082031,0.0820313 -0.046875,0 -0.082031,-0.0117188 -0.09375,-0.046875 -0.011719,-0.0351563 0.023437,-0.0820313 0.082031,-0.0820313 0.046875,-0.0117188 0.082031,0.0117188 0.09375,0.046875 z m 0,0"
       style="fill:#ffffff;fill-opacity:1;fill-rule:nonzero;stroke:none"
       aria-label=""
       transform="matrix(1.3333333,0,0,1.3333333,202.06267,200.37467)" />
    <path
       id="path36"
       d="m 3.5041562,-3.8905 c 0.2226563,0 0.5039063,-0.046875 0.7382813,-0.046875 0.1757812,0 0.5742187,0.035156 0.5859375,0.035156 L 4.7229062,-4.5350313 c -0.703125,0 -1.2773437,0.1875 -1.5703125,0.3164063 -0.2109375,-0.1640625 -0.5507812,-0.3164063 -0.9492187,-0.3164063 -0.8554688,0 -1.58203125,0.7148438 -1.58203125,1.6289063 0,0.3632812 0.12890625,0.7265625 0.328125,0.984375 C 0.6565,-1.5115938 0.6565,-1.124875 0.6565,-1.078 c 0,0.2578125 0.09375,0.55078125 0.2578125,0.76171875 C 0.3986875,-0.01159375 0.2815,0.4454375 0.2815,0.70325 c 0,0.75 0.984375,1.3476562 2.203125,1.3476562 1.21875,0 2.203125,-0.5859375 2.203125,-1.3476562 0,-1.39453125 -1.6640625,-1.39453125 -2.0507813,-1.39453125 H 1.7580625 c -0.1289063,0 -0.5742188,0 -0.5742188,-0.52734375 0,-0.1054688 0.046875,-0.2695313 0.1171875,-0.3515625 0.1992188,0.140625 0.5273438,0.28125 0.9023438,0.28125 0.890625,0 1.59375,-0.7382813 1.59375,-1.6171875 0,-0.4804688 -0.2226563,-0.84375 -0.328125,-0.9960938 z M 2.203375,-1.8514375 c -0.375,0 -0.890625,-0.234375 -0.890625,-1.0546875 0,-0.8320313 0.515625,-1.0546875 0.890625,-1.0546875 0.421875,0 0.890625,0.2695312 0.890625,1.0546875 0,0.7734375 -0.46875,1.0546875 -0.890625,1.0546875 z m 0.4453125,1.88671875 c 0.2226562,0 1.3476562,0 1.3476562,0.6796875 0,0.44531245 -0.6914062,0.77343745 -1.5,0.77343745 C 1.68775,1.4884062 0.97290625,1.172 0.97290625,0.70325 c 0,-0.0234375 0,-0.66796875 0.78515625,-0.66796875 z M 6.609625,-6.7733125 H 5.719 v 0.890625 h 0.890625 z m -0.070312,2.3554687 h -0.75 V 1.25e-4 h 0.75 z M 9.1086484,-3.843625 H 10.514898 V -4.4178438 H 9.1086484 v -1.265625 H 8.4172422 v 1.265625 H 7.5500547 v 0.5742188 h 0.84375 v 2.6601562 c 0,0.5976563 0.1289062,1.28906255 0.8203125,1.28906255 0.703125,0 1.2070308,-0.24609375 1.4531248,-0.375 l -0.152344,-0.5859375 c -0.257812,0.2109375 -0.5859371,0.328125 -0.9023433,0.328125 -0.3632813,0 -0.5039063,-0.3046875 -0.5039063,-0.83203125 z m 6.1874996,0.8789062 c 0,-0.65625 -0.152343,-1.5703125 -1.371093,-1.5703125 -0.609375,0 -1.089844,0.3164063 -1.40625,0.7148438 v -3.09375 h -0.75 V 1.25e-4 h 0.773437 v -2.4375 c 0,-0.65625 0.246094,-1.4882813 1.007813,-1.4882813 0.960937,0 0.960937,0.703125 0.960937,1.03125 V 1.25e-4 h 0.785156 z m 5.147461,-1.453125 h -0.785156 v 2.8828125 c 0,0.75000005 -0.550781,1.10156255 -1.195312,1.10156255 -0.703125,0 -0.773438,-0.26953125 -0.773438,-0.69140625 v -3.2929688 h -0.773437 v 3.328125 c 0,0.72656255 0.222656,1.19531255 1.054687,1.19531255 0.527344,0 1.230469,-0.15234375 1.722656,-0.5859375 V 1.25e-4 h 0.75 z m 2.370118,-2.4960937 H 22.075445 V 1.25e-4 h 0.773438 v -0.45703125 c 0.234375,0.22265625 0.667969,0.5625 1.335937,0.5625 0.996094,0 1.851563,-0.99609375 1.851563,-2.33203125 0,-1.2304688 -0.679688,-2.3085938 -1.617188,-2.3085938 -0.386718,0 -1.007812,0.1054688 -1.605468,0.5859375 z m 0.03516,3.5742187 c 0.164062,-0.234375 0.515625,-0.5859375 1.066406,-0.5859375 0.585938,0 1.347656,0.4335938 1.347656,1.6992188 0,1.30078125 -0.84375,1.72265625 -1.453125,1.72265625 -0.386718,0 -0.714843,-0.17578125 -0.960937,-0.63281255 z m 0,0"
       style="fill:#262626;fill-opacity:1;fill-rule:nonzero;stroke:none"
       aria-label="github"
       transform="matrix(1.3333333,0,0,1.3333333,217.87467,199.43733)" />
    <path
       id="path37"
       d="m 3.5041562,-3.8898828 c 0.2226563,0 0.5039063,-0.046875 0.7382813,-0.046875 0.1757812,0 0.5742187,0.035156 0.5859375,0.035156 L 4.7229062,-4.5344141 c -0.703125,0 -1.2773437,0.1875 -1.5703125,0.3164063 -0.2109375,-0.1640625 -0.5507812,-0.3164063 -0.9492187,-0.3164063 -0.8554688,0 -1.58203125,0.7148438 -1.58203125,1.6289063 0,0.3632812 0.12890625,0.7265625 0.328125,0.984375 C 0.6565,-1.5109766 0.6565,-1.1242578 0.6565,-1.0773828 c 0,0.25781249 0.09375,0.55078124 0.2578125,0.76171874 C 0.3986875,-0.01097656 0.2815,0.44605469 0.2815,0.70386719 c 0,0.75000001 0.984375,1.34765621 2.203125,1.34765621 1.21875,0 2.203125,-0.5859375 2.203125,-1.34765621 0,-1.39453125 -1.6640625,-1.39453125 -2.0507813,-1.39453125 H 1.7580625 c -0.1289063,0 -0.5742188,0 -0.5742188,-0.52734374 0,-0.1054688 0.046875,-0.2695313 0.1171875,-0.3515625 0.1992188,0.140625 0.5273438,0.28125 0.9023438,0.28125 0.890625,0 1.59375,-0.7382813 1.59375,-1.6171875 0,-0.4804688 -0.2226563,-0.84375 -0.328125,-0.9960938 z M 2.203375,-1.8508203 c -0.375,0 -0.890625,-0.234375 -0.890625,-1.0546875 0,-0.8320313 0.515625,-1.0546875 0.890625,-1.0546875 0.421875,0 0.890625,0.2695312 0.890625,1.0546875 0,0.7734375 -0.46875,1.0546875 -0.890625,1.0546875 z m 0.4453125,1.88671874 c 0.2226562,0 1.3476562,0 1.3476562,0.6796875 0,0.44531246 -0.6914062,0.77343746 -1.5,0.77343746 -0.8085937,0 -1.52343745,-0.3164062 -1.52343745,-0.78515621 0,-0.0234375 0,-0.66796875 0.78515625,-0.66796875 z M 6.609625,-6.7726953 H 5.719 v 0.890625 h 0.890625 z m -0.070312,2.3554687 h -0.75 V 7.421875e-4 h 0.75 z m 2.5693359,0.5742188 H 10.514898 V -4.4172266 H 9.1086484 v -1.265625 H 8.4172422 v 1.265625 H 7.5500547 v 0.5742188 h 0.84375 v 2.6601562 c 0,0.59765629 0.1289062,1.28906254 0.8203125,1.28906254 0.703125,0 1.2070308,-0.24609375 1.4531248,-0.375 l -0.152344,-0.5859375 c -0.257812,0.2109375 -0.5859371,0.328125 -0.9023433,0.328125 -0.3632813,0 -0.5039063,-0.3046875 -0.5039063,-0.83203124 z m 6.1875001,0.8789062 c 0,-0.65625 -0.152343,-1.5703125 -1.371093,-1.5703125 -0.609375,0 -1.089844,0.3164063 -1.40625,0.7148438 v -3.09375 h -0.75 V 7.421875e-4 h 0.773437 V -2.4367578 c 0,-0.65625 0.246094,-1.4882813 1.007813,-1.4882813 0.960937,0 0.960937,0.703125 0.960937,1.03125 V 7.421875e-4 h 0.785156 z m 5.14746,-1.453125 h -0.785156 v 2.8828125 c 0,0.75000004 -0.550781,1.10156254 -1.195312,1.10156254 -0.703125,0 -0.773438,-0.26953125 -0.773438,-0.69140624 v -3.2929688 h -0.773437 v 3.328125 c 0,0.72656254 0.222656,1.19531254 1.054687,1.19531254 0.527344,0 1.230469,-0.15234375 1.722656,-0.5859375 V 7.421875e-4 h 0.75 z m 2.370119,-2.4960937 H 22.075445 V 7.421875e-4 h 0.773438 V -0.45628906 c 0.234375,0.22265625 0.667969,0.5625 1.335937,0.5625 0.996094,0 1.851563,-0.99609375 1.851563,-2.33203124 0,-1.2304688 -0.679688,-2.3085938 -1.617188,-2.3085938 -0.386718,0 -1.007812,0.1054688 -1.605468,0.5859375 z m 0.03516,3.5742187 c 0.164062,-0.234375 0.515625,-0.5859375 1.066406,-0.5859375 0.585938,0 1.347656,0.4335938 1.347656,1.6992188 0,1.30078124 -0.84375,1.72265624 -1.453125,1.72265624 -0.386718,0 -0.714843,-0.17578125 -0.960937,-0.63281254 z m 0,0"
       style="fill:#ffffff;fill-opacity:1;fill-rule:nonzero;stroke:none"
       aria-label="github"
       transform="matrix(1.3333333,0,0,1.3333333,217.87467,198.84667)" />
    <path
       id="path38"
       d="m 1.7471563,-3.843625 h 1.40625 v -0.5742188 h -1.40625 v -1.265625 H 1.05575 v 1.265625 H 0.1885625 v 0.5742188 h 0.84375 v 2.6601562 c 0,0.5976563 0.1289063,1.28906255 0.8203125,1.28906255 0.703125,0 1.2070313,-0.24609375 1.453125,-0.375 l -0.1523437,-0.5859375 c -0.2578125,0.2109375 -0.5859375,0.328125 -0.9023438,0.328125 -0.3632812,0 -0.5039062,-0.3046875 -0.5039062,-0.83203125 z m 6.1875,0.8789062 c 0,-0.65625 -0.1523438,-1.5703125 -1.3710938,-1.5703125 -0.609375,0 -1.0898437,0.3164063 -1.40625,0.7148438 v -3.09375 h -0.75 V 1.25e-4 H 5.18075 v -2.4375 c 0,-0.65625 0.2460938,-1.4882813 1.0078125,-1.4882813 0.9609375,0 0.9609375,0.703125 0.9609375,1.03125 V 1.25e-4 h 0.7851563 z m 5.4873047,0.7734375 c 0,-1.3359375 -0.996094,-2.4023437 -2.179688,-2.4023437 -1.230468,0 -2.1914058,1.1015625 -2.1914058,2.4023437 0,1.31250005 1.0078128,2.29687505 2.1796878,2.29687505 1.195312,0 2.191406,-1.0078125 2.191406,-2.29687505 z m -2.191406,1.66406255 c -0.691407,0 -1.4062503,-0.56250005 -1.4062503,-1.76953125 0,-1.1953125 0.7500003,-1.6875 1.4062503,-1.6875 0.691406,0 1.40625,0.515625 1.40625,1.6875 0,1.1835937 -0.667969,1.76953125 -1.40625,1.76953125 z m 9.597656,-2.43750005 c 0,-0.6679687 -0.164063,-1.5703125 -1.359375,-1.5703125 -0.597656,0 -1.125,0.28125 -1.488281,0.8203125 -0.257813,-0.7617187 -0.960938,-0.8203125 -1.277344,-0.8203125 -0.714844,0 -1.183594,0.4101563 -1.453125,0.7734375 V -4.4881563 H 14.535242 V 1.25e-4 h 0.773438 v -2.4375 c 0,-0.6796875 0.269531,-1.4882813 1.007812,-1.4882813 0.925781,0 0.972656,0.6445313 0.972656,1.03125 V 1.25e-4 h 0.785157 v -2.4375 c 0,-0.6796875 0.269531,-1.4882813 0.996093,-1.4882813 0.9375,0 0.984375,0.6445313 0.984375,1.03125 V 1.25e-4 h 0.773438 z m 4.78418,0.082031 c 0,-1.0078125 -0.726563,-1.7109375 -1.640625,-1.7109375 -0.644532,0 -1.101563,0.1640625 -1.570313,0.4335937 l 0.07031,0.65625 c 0.515625,-0.375 1.007812,-0.5039062 1.5,-0.5039062 0.46875,0 0.867187,0.3984375 0.867187,1.1367187 v 0.4335938 c -1.5,0.011719 -2.765625,0.4335937 -2.765625,1.3125 0,0.421875 0.269531,1.23046875 1.136719,1.23046875 0.140625,0 1.078125,-0.01171875 1.652344,-0.46875 V 1.25e-4 h 0.75 z m -0.773438,1.5703125 c 0,0.1875 0,0.43359375 -0.339844,0.62109375 -0.292968,0.1875 -0.667968,0.1875 -0.773437,0.1875 -0.480469,0 -0.925781,-0.22265625 -0.925781,-0.64453125 0,-0.6914063 1.605468,-0.7617188 2.039062,-0.7851563 z m 5.012695,-2.9648438 c -0.527343,-0.234375 -0.925781,-0.3164062 -1.441406,-0.3164062 -0.246094,0 -1.652344,0 -1.652344,1.3007812 0,0.4921875 0.292969,0.8085938 0.539063,0.9960938 0.304687,0.2226562 0.527344,0.2695312 1.078125,0.375 0.351562,0.070312 0.9375,0.1875 0.9375,0.7148437 0,0.6914063 -0.785156,0.6914063 -0.9375,0.6914063 -0.808594,0 -1.371094,-0.375 -1.546875,-0.4921875 L 26.711023,-0.328 c 0.316407,0.1640625 0.867188,0.43359375 1.675782,0.43359375 0.175781,0 0.726562,0 1.148437,-0.31640625 0.316406,-0.234375 0.480469,-0.6328125 0.480469,-1.0664063 0,-0.5507812 -0.363281,-0.8789062 -0.386719,-0.9140625 -0.386719,-0.3515625 -0.65625,-0.4101562 -1.160156,-0.5039062 -0.539063,-0.1054688 -1.007813,-0.1992188 -1.007813,-0.6914063 0,-0.6210937 0.726563,-0.6210937 0.855469,-0.6210937 0.316406,0 0.84375,0.046875 1.40625,0.3867187 z M 33.001063,-1.92175 V -2.4959688 H 30.352625 V -1.92175 Z m 3.990234,-2.3554688 c -0.527344,-0.234375 -0.925781,-0.3164062 -1.441406,-0.3164062 -0.246094,0 -1.652344,0 -1.652344,1.3007812 0,0.4921875 0.292969,0.8085938 0.539062,0.9960938 0.304688,0.2226562 0.527344,0.2695312 1.078125,0.375 0.351563,0.070312 0.9375,0.1875 0.9375,0.7148437 0,0.6914063 -0.785156,0.6914063 -0.9375,0.6914063 -0.808593,0 -1.371093,-0.375 -1.546875,-0.4921875 L 33.850672,-0.328 c 0.316406,0.1640625 0.867187,0.43359375 1.675781,0.43359375 0.175781,0 0.726563,0 1.148438,-0.31640625 0.316406,-0.234375 0.480468,-0.6328125 0.480468,-1.0664063 0,-0.5507812 -0.363281,-0.8789062 -0.386718,-0.9140625 -0.386719,-0.3515625 -0.65625,-0.4101562 -1.160157,-0.5039062 -0.539062,-0.1054688 -1.007812,-0.1992188 -1.007812,-0.6914063 0,-0.6210937 0.726562,-0.6210937 0.855469,-0.6210937 0.316406,0 0.84375,0.046875 1.40625,0.3867187 z m 4.368164,1.3945313 c 0,-1.0078125 -0.726563,-1.7109375 -1.640625,-1.7109375 -0.644531,0 -1.101563,0.1640625 -1.570313,0.4335937 l 0.07031,0.65625 c 0.515625,-0.375 1.007812,-0.5039062 1.5,-0.5039062 0.46875,0 0.867187,0.3984375 0.867187,1.1367187 v 0.4335938 c -1.5,0.011719 -2.765625,0.4335937 -2.765625,1.3125 0,0.421875 0.269532,1.23046875 1.136719,1.23046875 0.140625,0 1.078125,-0.01171875 1.652344,-0.46875 V 1.25e-4 h 0.75 z m -0.773438,1.5703125 c 0,0.1875 0,0.43359375 -0.339843,0.62109375 -0.292969,0.1875 -0.667969,0.1875 -0.773438,0.1875 -0.480469,0 -0.925781,-0.22265625 -0.925781,-0.64453125 0,-0.6914063 1.605469,-0.7617188 2.039062,-0.7851563 z m 3.216797,-5.4609375 h -0.890625 v 0.890625 h 0.890625 z m -0.07031,2.3554687 h -0.75 V 1.25e-4 h 0.75 z M 48.059656,-3.8905 c 0.222657,0 0.503907,-0.046875 0.738282,-0.046875 0.175781,0 0.574218,0.035156 0.585937,0.035156 l -0.105469,-0.6328125 c -0.703125,0 -1.277343,0.1875 -1.570312,0.3164063 -0.210938,-0.1640625 -0.550781,-0.3164063 -0.949219,-0.3164063 -0.855469,0 -1.582031,0.7148438 -1.582031,1.6289063 0,0.3632812 0.128906,0.7265625 0.328125,0.984375 C 45.212,-1.5115938 45.212,-1.124875 45.212,-1.078 c 0,0.2578125 0.09375,0.55078125 0.257813,0.76171875 C 44.954188,-0.01159375 44.837,0.4454375 44.837,0.70325 c 0,0.75 0.984375,1.3476562 2.203125,1.3476562 1.21875,0 2.203125,-0.5859375 2.203125,-1.3476562 0,-1.39453125 -1.664062,-1.39453125 -2.050781,-1.39453125 h -0.878906 c -0.128907,0 -0.574219,0 -0.574219,-0.52734375 0,-0.1054688 0.04687,-0.2695313 0.117187,-0.3515625 0.199219,0.140625 0.527344,0.28125 0.902344,0.28125 0.890625,0 1.59375,-0.7382813 1.59375,-1.6171875 0,-0.4804688 -0.222656,-0.84375 -0.328125,-0.9960938 z m -1.300781,2.0390625 c -0.375,0 -0.890625,-0.234375 -0.890625,-1.0546875 0,-0.8320313 0.515625,-1.0546875 0.890625,-1.0546875 0.421875,0 0.890625,0.2695312 0.890625,1.0546875 0,0.7734375 -0.46875,1.0546875 -0.890625,1.0546875 z m 0.445313,1.88671875 c 0.222656,0 1.347656,0 1.347656,0.6796875 0,0.44531245 -0.691406,0.77343745 -1.5,0.77343745 -0.808594,0 -1.523438,-0.3164062 -1.523438,-0.7851562 0,-0.0234375 0,-0.66796875 0.785157,-0.66796875 z m 3.890625,-2.16796875 c 0,-0.9960938 0.726562,-1.7109375 1.699218,-1.734375 v -0.6679688 c -0.890625,0.011719 -1.429687,0.5039063 -1.746093,0.9609375 V -4.4881563 H 50.356531 V 1.25e-4 h 0.738282 z m 5.970703,-0.046875 c 0,-0.3398438 -0.01172,-1.0898438 -0.398438,-1.6875 -0.410156,-0.6210938 -1.019531,-0.7265625 -1.371094,-0.7265625 -1.113281,0 -2.003906,1.0546875 -2.003906,2.34375 0,1.3125 0.949219,2.35546875 2.144531,2.35546875 0.632813,0 1.195313,-0.234375 1.59375,-0.515625 l -0.07031,-0.64453125 c -0.621094,0.515625 -1.277344,0.55078125 -1.511719,0.55078125 -0.796875,0 -1.429687,-0.70312505 -1.464844,-1.67578125 z m -3.023438,-0.5507813 c 0.152344,-0.7617187 0.679688,-1.2539062 1.253906,-1.2539062 0.515625,0 1.066407,0.3398437 1.195313,1.2539062 z m 7.68457,-4.359375 c 0.05859,-0.1289062 0.05859,-0.1640625 0.05859,-0.1875 0,-0.1054687 -0.09375,-0.1992187 -0.199219,-0.1992187 -0.140625,0 -0.1875,0.1054687 -0.210937,0.1992187 L 57.976648,2.1095 c -0.04687,0.1289062 -0.04687,0.1640625 -0.04687,0.1875 0,0.1054687 0.08203,0.1992187 0.199219,0.1992187 0.140625,0 0.175781,-0.1054687 0.199219,-0.1992187 z m 2.367188,3.2460938 h 1.40625 v -0.5742188 h -1.40625 v -1.265625 H 63.40243 v 1.265625 h -0.867188 v 0.5742188 h 0.84375 v 2.6601562 c 0,0.5976563 0.128906,1.28906255 0.820313,1.28906255 0.703125,0 1.207031,-0.24609375 1.453125,-0.375 l -0.152344,-0.5859375 c -0.257813,0.2109375 -0.585938,0.328125 -0.902344,0.328125 -0.363281,0 -0.503906,-0.3046875 -0.503906,-0.83203125 z m 3.480469,-2.9296875 H 66.68368 v 0.890625 h 0.890625 z m -0.07031,2.3554687 h -0.75 V 1.25e-4 h 0.75 z m 3.624024,1.7109375 1.675781,-1.7109375 h -0.902344 l -2.015625,2.0625 V -6.9139375 H 69.159266 V 1.25e-4 h 0.691406 v -1.40625 l 0.796875,-0.8203125 1.558594,2.2265625 h 0.808593 z M 77.18075,-4.031125 v -0.3867188 h -3.5625 v 0.5859375 h 1.382813 c 0.117187,0 0.234375,-0.011719 0.351562,-0.011719 h 0.785156 l -2.660156,3.43359375 V 1.25e-4 h 3.726563 v -0.62109375 h -1.464844 c -0.117188,0 -0.246094,0.0117188 -0.363281,0.0117188 h -0.84375 z m 3.102539,2.109375 V -2.4959688 H 77.634852 V -1.92175 Z m 3.987305,-2.3554688 c -0.527344,-0.234375 -0.925781,-0.3164062 -1.441406,-0.3164062 -0.246094,0 -1.652344,0 -1.652344,1.3007812 0,0.4921875 0.292969,0.8085938 0.539062,0.9960938 0.304688,0.2226562 0.527344,0.2695312 1.078125,0.375 0.351563,0.070312 0.9375,0.1875 0.9375,0.7148437 0,0.6914063 -0.785156,0.6914063 -0.9375,0.6914063 -0.808593,0 -1.371093,-0.375 -1.546875,-0.4921875 L 81.129969,-0.328 c 0.316406,0.1640625 0.867187,0.43359375 1.675781,0.43359375 0.175781,0 0.726563,0 1.148438,-0.31640625 0.316406,-0.234375 0.480468,-0.6328125 0.480468,-1.0664063 0,-0.5507812 -0.363281,-0.8789062 -0.386718,-0.9140625 -0.386719,-0.3515625 -0.65625,-0.4101562 -1.160157,-0.5039062 -0.539062,-0.1054688 -1.007812,-0.1992188 -1.007812,-0.6914063 0,-0.6210937 0.726562,-0.6210937 0.855469,-0.6210937 0.316406,0 0.84375,0.046875 1.40625,0.3867187 z m 4.731445,1.3125 c 0,-0.65625 -0.152344,-1.5703125 -1.371094,-1.5703125 -0.609375,0 -1.089843,0.3164063 -1.40625,0.7148438 v -3.09375 h -0.75 V 1.25e-4 h 0.773438 v -2.4375 c 0,-0.65625 0.246094,-1.4882813 1.007812,-1.4882813 0.960938,0 0.960938,0.703125 0.960938,1.03125 V 1.25e-4 h 0.785156 z m 2.44043,-3.8085937 h -0.890625 v 0.890625 h 0.890625 z m -0.07031,2.3554687 h -0.75 V 1.25e-4 h 0.75 z m 4.948242,2.2382813 c 0,-0.3398438 -0.01172,-1.0898438 -0.398437,-1.6875 -0.410156,-0.6210938 -1.019531,-0.7265625 -1.371094,-0.7265625 -1.113281,0 -2.003906,1.0546875 -2.003906,2.34375 0,1.3125 0.949219,2.35546875 2.144531,2.35546875 0.632813,0 1.195313,-0.234375 1.59375,-0.515625 L 96.21493,-1.0545625 c -0.621094,0.515625 -1.277344,0.55078125 -1.511719,0.55078125 -0.796875,0 -1.429688,-0.70312505 -1.464844,-1.67578125 z m -3.023437,-0.5507813 c 0.152344,-0.7617187 0.679687,-1.2539062 1.253906,-1.2539062 0.515625,0 1.066406,0.3398437 1.195313,1.2539062 z m 4.883789,-4.1835937 h -0.75 V 1.25e-4 h 0.75 z m 5.144527,0 h -0.75 V -3.98425 c -0.52734,-0.4335938 -1.07812,-0.5507813 -1.45312,-0.5507813 -0.98438,0 -1.757813,1.0429688 -1.757813,2.3203125 0,1.31250005 0.761713,2.32031255 1.710933,2.32031255 0.32813,0 0.91406,-0.08203125 1.47656,-0.62109375 V 1.25e-4 h 0.77344 z m -0.77344,5.53125 c 0,0.140625 -0.0117,0.3164062 -0.32812,0.609375 -0.23438,0.19921875 -0.48047,0.26953125 -0.73828,0.26953125 -0.6211,0 -1.34766,-0.45703125 -1.34766,-1.69921875 0,-1.3125 0.85547,-1.7226563 1.44141,-1.7226563 0.44531,0 0.75,0.234375 0.97265,0.5507813 z m 5.02149,-2.8945313 c -0.52735,-0.234375 -0.92578,-0.3164062 -1.44141,-0.3164062 -0.24609,0 -1.65234,0 -1.65234,1.3007812 0,0.4921875 0.29297,0.8085938 0.53906,0.9960938 0.30469,0.2226562 0.52734,0.2695312 1.07813,0.375 0.35156,0.070312 0.9375,0.1875 0.9375,0.7148437 0,0.6914063 -0.78516,0.6914063 -0.9375,0.6914063 -0.8086,0 -1.3711,-0.375 -1.54688,-0.4921875 L 104.4327,-0.328 c 0.31641,0.1640625 0.86719,0.43359375 1.67578,0.43359375 0.17579,0 0.72657,0 1.14844,-0.31640625 0.31641,-0.234375 0.48047,-0.6328125 0.48047,-1.0664063 0,-0.5507812 -0.36328,-0.8789062 -0.38672,-0.9140625 -0.38672,-0.3515625 -0.65625,-0.4101562 -1.16015,-0.5039062 -0.53907,-0.1054688 -1.00782,-0.1992188 -1.00782,-0.6914063 0,-0.6210937 0.72657,-0.6210937 0.85547,-0.6210937 0.31641,0 0.84375,0.046875 1.40625,0.3867187 z m 0,0"
       style="fill:#07344e;fill-opacity:1;fill-rule:nonzero;stroke:none"
       aria-label="thomas-saigre/tikz-shields"
       transform="matrix(1.3333333,0,0,1.3333333,259.71733,199.43733)" />
    <path
       id="path39"
       d="m 1.7471563,-3.8430078 h 1.40625 v -0.5742188 h -1.40625 v -1.265625 H 1.05575 v 1.265625 H 0.1885625 v 0.5742188 h 0.84375 v 2.6601562 c 0,0.59765629 0.1289063,1.28906254 0.8203125,1.28906254 0.703125,0 1.2070313,-0.24609375 1.453125,-0.375 l -0.1523437,-0.5859375 c -0.2578125,0.2109375 -0.5859375,0.328125 -0.9023438,0.328125 -0.3632812,0 -0.5039062,-0.3046875 -0.5039062,-0.83203124 z m 6.1875,0.8789062 c 0,-0.65625 -0.1523438,-1.5703125 -1.3710938,-1.5703125 -0.609375,0 -1.0898437,0.3164063 -1.40625,0.7148438 v -3.09375 h -0.75 V 7.421875e-4 H 5.18075 V -2.4367578 c 0,-0.65625 0.2460938,-1.4882813 1.0078125,-1.4882813 0.9609375,0 0.9609375,0.703125 0.9609375,1.03125 V 7.421875e-4 h 0.7851563 z m 5.4873047,0.7734375 c 0,-1.3359375 -0.996094,-2.4023437 -2.179688,-2.4023437 -1.230468,0 -2.1914058,1.1015625 -2.1914058,2.4023437 0,1.31250004 1.0078128,2.29687504 2.1796878,2.29687504 1.195312,0 2.191406,-1.0078125 2.191406,-2.29687504 z m -2.191406,1.66406254 c -0.691407,0 -1.4062503,-0.56250004 -1.4062503,-1.76953124 0,-1.1953125 0.7500003,-1.6875 1.4062503,-1.6875 0.691406,0 1.40625,0.515625 1.40625,1.6875 0,1.1835937 -0.667969,1.76953124 -1.40625,1.76953124 z m 9.597656,-2.43750004 c 0,-0.6679687 -0.164063,-1.5703125 -1.359375,-1.5703125 -0.597656,0 -1.125,0.28125 -1.488281,0.8203125 -0.257813,-0.7617187 -0.960938,-0.8203125 -1.277344,-0.8203125 -0.714844,0 -1.183594,0.4101563 -1.453125,0.7734375 V -4.4875391 H 14.535242 V 7.421875e-4 H 15.30868 V -2.4367578 c 0,-0.6796875 0.269531,-1.4882813 1.007812,-1.4882813 0.925781,0 0.972656,0.6445313 0.972656,1.03125 V 7.421875e-4 h 0.785157 V -2.4367578 c 0,-0.6796875 0.269531,-1.4882813 0.996093,-1.4882813 0.9375,0 0.984375,0.6445313 0.984375,1.03125 V 7.421875e-4 h 0.773438 z m 4.78418,0.082031 c 0,-1.0078125 -0.726563,-1.7109375 -1.640625,-1.7109375 -0.644532,0 -1.101563,0.1640625 -1.570313,0.4335937 l 0.07031,0.65625 c 0.515625,-0.375 1.007812,-0.5039062 1.5,-0.5039062 0.46875,0 0.867187,0.3984375 0.867187,1.1367187 v 0.4335938 c -1.5,0.011719 -2.765625,0.4335937 -2.765625,1.3125 0,0.42187499 0.269531,1.23046874 1.136719,1.23046874 0.140625,0 1.078125,-0.01171875 1.652344,-0.46875 V 7.421875e-4 h 0.75 z m -0.773438,1.5703125 c 0,0.1875 0,0.43359374 -0.339844,0.62109374 -0.292968,0.1875 -0.667968,0.1875 -0.773437,0.1875 -0.480469,0 -0.925781,-0.22265625 -0.925781,-0.64453124 0,-0.6914063 1.605468,-0.7617188 2.039062,-0.7851563 z m 5.012695,-2.9648438 c -0.527343,-0.234375 -0.925781,-0.3164062 -1.441406,-0.3164062 -0.246094,0 -1.652344,0 -1.652344,1.3007812 0,0.4921875 0.292969,0.8085938 0.539063,0.9960938 0.304687,0.2226562 0.527344,0.2695312 1.078125,0.375 0.351562,0.070312 0.9375,0.1875 0.9375,0.7148437 0,0.69140629 -0.785156,0.69140629 -0.9375,0.69140629 -0.808594,0 -1.371094,-0.375 -1.546875,-0.49218749 l -0.117188,0.67968749 c 0.316407,0.1640625 0.867188,0.43359375 1.675782,0.43359375 0.175781,0 0.726562,0 1.148437,-0.31640625 0.316406,-0.234375 0.480469,-0.6328125 0.480469,-1.06640629 0,-0.5507812 -0.363281,-0.8789062 -0.386719,-0.9140625 -0.386719,-0.3515625 -0.65625,-0.4101562 -1.160156,-0.5039062 -0.539063,-0.1054688 -1.007813,-0.1992188 -1.007813,-0.6914063 0,-0.6210937 0.726563,-0.6210937 0.855469,-0.6210937 0.316406,0 0.84375,0.046875 1.40625,0.3867187 z m 3.149415,2.3554688 v -0.5742188 h -2.648438 v 0.5742188 z m 3.990234,-2.3554688 c -0.527344,-0.234375 -0.925781,-0.3164062 -1.441406,-0.3164062 -0.246094,0 -1.652344,0 -1.652344,1.3007812 0,0.4921875 0.292969,0.8085938 0.539062,0.9960938 0.304688,0.2226562 0.527344,0.2695312 1.078125,0.375 0.351563,0.070312 0.9375,0.1875 0.9375,0.7148437 0,0.69140629 -0.785156,0.69140629 -0.9375,0.69140629 -0.808593,0 -1.371093,-0.375 -1.546875,-0.49218749 l -0.117187,0.67968749 c 0.316406,0.1640625 0.867187,0.43359375 1.675781,0.43359375 0.175781,0 0.726563,0 1.148438,-0.31640625 0.316406,-0.234375 0.480468,-0.6328125 0.480468,-1.06640629 0,-0.5507812 -0.363281,-0.8789062 -0.386718,-0.9140625 -0.386719,-0.3515625 -0.65625,-0.4101562 -1.160157,-0.5039062 -0.539062,-0.1054688 -1.007812,-0.1992188 -1.007812,-0.6914063 0,-0.6210937 0.726562,-0.6210937 0.855469,-0.6210937 0.316406,0 0.84375,0.046875 1.40625,0.3867187 z m 4.368164,1.3945313 c 0,-1.0078125 -0.726563,-1.7109375 -1.640625,-1.7109375 -0.644531,0 -1.101563,0.1640625 -1.570313,0.4335937 l 0.07031,0.65625 c 0.515625,-0.375 1.007812,-0.5039062 1.5,-0.5039062 0.46875,0 0.867187,0.3984375 0.867187,1.1367187 v 0.4335938 c -1.5,0.011719 -2.765625,0.4335937 -2.765625,1.3125 0,0.42187499 0.269532,1.23046874 1.136719,1.23046874 0.140625,0 1.078125,-0.01171875 1.652344,-0.46875 V 7.421875e-4 h 0.75 z m -0.773438,1.5703125 c 0,0.1875 0,0.43359374 -0.339843,0.62109374 -0.292969,0.1875 -0.667969,0.1875 -0.773438,0.1875 -0.480469,0 -0.925781,-0.22265625 -0.925781,-0.64453124 0,-0.6914063 1.605469,-0.7617188 2.039062,-0.7851563 z m 3.216797,-5.4609375 h -0.890625 v 0.890625 h 0.890625 z m -0.07031,2.3554687 h -0.75 V 7.421875e-4 h 0.75 z m 4.327148,0.5273438 c 0.222657,0 0.503907,-0.046875 0.738282,-0.046875 0.175781,0 0.574218,0.035156 0.585937,0.035156 l -0.105469,-0.6328125 c -0.703125,0 -1.277343,0.1875 -1.570312,0.3164063 -0.210938,-0.1640625 -0.550781,-0.3164063 -0.949219,-0.3164063 -0.855469,0 -1.582031,0.7148438 -1.582031,1.6289063 0,0.3632812 0.128906,0.7265625 0.328125,0.984375 -0.292969,0.4101562 -0.292969,0.796875 -0.292969,0.84375 0,0.25781249 0.09375,0.55078124 0.257813,0.76171874 -0.515625,0.3046875 -0.632813,0.76171875 -0.632813,1.01953125 0,0.75000001 0.984375,1.34765621 2.203125,1.34765621 1.21875,0 2.203125,-0.5859375 2.203125,-1.34765621 0,-1.39453125 -1.664062,-1.39453125 -2.050781,-1.39453125 h -0.878906 c -0.128907,0 -0.574219,0 -0.574219,-0.52734374 0,-0.1054688 0.04687,-0.2695313 0.117187,-0.3515625 0.199219,0.140625 0.527344,0.28125 0.902344,0.28125 0.890625,0 1.59375,-0.7382813 1.59375,-1.6171875 0,-0.4804688 -0.222656,-0.84375 -0.328125,-0.9960938 z m -1.300781,2.0390625 c -0.375,0 -0.890625,-0.234375 -0.890625,-1.0546875 0,-0.8320313 0.515625,-1.0546875 0.890625,-1.0546875 0.421875,0 0.890625,0.2695312 0.890625,1.0546875 0,0.7734375 -0.46875,1.0546875 -0.890625,1.0546875 z m 0.445313,1.88671874 c 0.222656,0 1.347656,0 1.347656,0.6796875 0,0.44531246 -0.691406,0.77343746 -1.5,0.77343746 -0.808594,0 -1.523438,-0.3164062 -1.523438,-0.78515621 0,-0.0234375 0,-0.66796875 0.785157,-0.66796875 z m 3.890625,-2.16796874 c 0,-0.9960938 0.726562,-1.7109375 1.699218,-1.734375 v -0.6679688 c -0.890625,0.011719 -1.429687,0.5039063 -1.746093,0.9609375 V -4.4875391 H 50.356531 V 7.421875e-4 h 0.738282 z m 5.970703,-0.046875 c 0,-0.3398438 -0.01172,-1.0898438 -0.398438,-1.6875 -0.410156,-0.6210938 -1.019531,-0.7265625 -1.371094,-0.7265625 -1.113281,0 -2.003906,1.0546875 -2.003906,2.34375 0,1.31249999 0.949219,2.35546874 2.144531,2.35546874 0.632813,0 1.195313,-0.234375 1.59375,-0.515625 l -0.07031,-0.64453124 c -0.621094,0.51562499 -1.277344,0.55078124 -1.511719,0.55078124 -0.796875,0 -1.429687,-0.70312504 -1.464844,-1.67578124 z M 54.04208,-2.7297269 c 0.152344,-0.7617187 0.679688,-1.2539062 1.253906,-1.2539062 0.515625,0 1.066407,0.3398437 1.195313,1.2539062 z m 7.68457,-4.359375 c 0.05859,-0.1289062 0.05859,-0.1640625 0.05859,-0.1875 0,-0.1054687 -0.09375,-0.1992187 -0.199219,-0.1992187 -0.140625,0 -0.1875,0.1054687 -0.210937,0.1992187 l -3.398438,9.3867188 c -0.04687,0.1289062 -0.04687,0.1640625 -0.04687,0.1875 0,0.1054687 0.08203,0.1992187 0.199219,0.1992187 0.140625,0 0.175781,-0.1054687 0.199219,-0.1992187 z m 2.367188,3.2460938 h 1.40625 v -0.5742188 h -1.40625 v -1.265625 H 63.40243 v 1.265625 h -0.867188 v 0.5742188 h 0.84375 v 2.6601562 c 0,0.59765629 0.128906,1.28906254 0.820313,1.28906254 0.703125,0 1.207031,-0.24609375 1.453125,-0.375 l -0.152344,-0.5859375 c -0.257813,0.2109375 -0.585938,0.328125 -0.902344,0.328125 -0.363281,0 -0.503906,-0.3046875 -0.503906,-0.83203124 z m 3.480469,-2.9296875 H 66.68368 v 0.890625 h 0.890625 z m -0.07031,2.3554687 h -0.75 V 7.421875e-4 h 0.75 z m 3.624024,1.7109375 1.675781,-1.7109375 h -0.902344 l -2.015625,2.0625 V -6.9133203 H 69.159266 V 7.421875e-4 h 0.691406 V -1.4055078 l 0.796875,-0.8203125 1.558594,2.2265624875 h 0.808593 z m 6.052734,-1.3242187 v -0.3867188 h -3.5625 v 0.5859375 h 1.382813 c 0.117187,0 0.234375,-0.011719 0.351562,-0.011719 h 0.785156 L 73.47763,-0.40941466 V 7.421875e-4 h 3.726563 V -0.62035156 h -1.464844 c -0.117188,0 -0.246094,0.0117188 -0.363281,0.0117188 h -0.84375 z m 3.102539,2.109375 v -0.5742188 h -2.648437 v 0.5742188 z m 3.987305,-2.3554688 c -0.527344,-0.234375 -0.925781,-0.3164062 -1.441406,-0.3164062 -0.246094,0 -1.652344,0 -1.652344,1.3007812 0,0.4921875 0.292969,0.8085938 0.539062,0.9960938 0.304688,0.2226562 0.527344,0.2695312 1.078125,0.375 0.351563,0.070312 0.9375,0.1875 0.9375,0.7148437 0,0.69140629 -0.785156,0.69140629 -0.9375,0.69140629 -0.808593,0 -1.371093,-0.375 -1.546875,-0.49218749 l -0.117187,0.67968749 c 0.316406,0.1640625 0.867187,0.43359375 1.675781,0.43359375 0.175781,0 0.726563,0 1.148438,-0.31640625 0.316406,-0.234375 0.480468,-0.6328125 0.480468,-1.06640629 0,-0.5507812 -0.363281,-0.8789062 -0.386718,-0.9140625 -0.386719,-0.3515625 -0.65625,-0.4101562 -1.160157,-0.5039062 -0.539062,-0.1054688 -1.007812,-0.1992188 -1.007812,-0.6914063 0,-0.6210937 0.726562,-0.6210937 0.855469,-0.6210937 0.316406,0 0.84375,0.046875 1.40625,0.3867187 z m 4.731445,1.3125 c 0,-0.65625 -0.152344,-1.5703125 -1.371094,-1.5703125 -0.609375,0 -1.089843,0.3164063 -1.40625,0.7148438 v -3.09375 h -0.75 V 7.421875e-4 h 0.773438 V -2.4367578 c 0,-0.65625 0.246094,-1.4882813 1.007812,-1.4882813 0.960938,0 0.960938,0.703125 0.960938,1.03125 V 7.421875e-4 h 0.785156 z m 2.44043,-3.8085937 h -0.890625 v 0.890625 h 0.890625 z m -0.07031,2.3554687 h -0.75 V 7.421875e-4 h 0.75 z m 4.948242,2.2382813 c 0,-0.3398438 -0.01172,-1.0898438 -0.398437,-1.6875 -0.410156,-0.6210938 -1.019531,-0.7265625 -1.371094,-0.7265625 -1.113281,0 -2.003906,1.0546875 -2.003906,2.34375 0,1.31249999 0.949219,2.35546874 2.144531,2.35546874 0.632813,0 1.195313,-0.234375 1.59375,-0.515625 L 96.21493,-1.0539453 c -0.621094,0.51562499 -1.277344,0.55078124 -1.511719,0.55078124 -0.796875,0 -1.429688,-0.70312504 -1.464844,-1.67578124 z m -3.023437,-0.5507813 c 0.152344,-0.7617187 0.679687,-1.2539062 1.253906,-1.2539062 0.515625,0 1.066406,0.3398437 1.195313,1.2539062 z m 4.883789,-4.1835937 h -0.75 V 7.421875e-4 h 0.75 z m 5.144532,0 h -0.75 v 2.9296875 c -0.52734,-0.4335938 -1.07812,-0.5507813 -1.45312,-0.5507813 -0.98438,0 -1.757818,1.0429688 -1.757818,2.3203125 0,1.31250004 0.761718,2.32031254 1.710938,2.32031254 0.32813,0 0.91406,-0.08203125 1.47656,-0.62109375 V 7.421875e-4 h 0.77344 z m -0.77344,5.53125 c 0,0.140625 -0.0117,0.3164062 -0.32812,0.60937499 -0.23438,0.19921875 -0.48047,0.26953125 -0.73828,0.26953125 -0.6211,0 -1.34766,-0.45703125 -1.34766,-1.69921874 0,-1.3125 0.85547,-1.7226563 1.44141,-1.7226563 0.44531,0 0.75,0.234375 0.97265,0.5507813 z m 5.02149,-2.8945313 c -0.52735,-0.234375 -0.92578,-0.3164062 -1.44141,-0.3164062 -0.24609,0 -1.65234,0 -1.65234,1.3007812 0,0.4921875 0.29297,0.8085938 0.53906,0.9960938 0.30469,0.2226562 0.52734,0.2695312 1.07813,0.375 0.35156,0.070312 0.9375,0.1875 0.9375,0.7148437 0,0.69140629 -0.78516,0.69140629 -0.9375,0.69140629 -0.8086,0 -1.3711,-0.375 -1.54688,-0.49218749 l -0.11719,0.67968749 c 0.31641,0.1640625 0.86719,0.43359375 1.67578,0.43359375 0.17579,0 0.72657,0 1.14844,-0.31640625 0.31641,-0.234375 0.48047,-0.6328125 0.48047,-1.06640629 0,-0.5507812 -0.36328,-0.8789062 -0.38672,-0.9140625 -0.38672,-0.3515625 -0.65625,-0.4101562 -1.16015,-0.5039062 -0.53907,-0.1054688 -1.00782,-0.1992188 -1.00782,-0.6914063 0,-0.6210937 0.72657,-0.6210937 0.85547,-0.6210937 0.31641,0 0.84375,0.046875 1.40625,0.3867187 z m 0,0"
       style="fill:#ffffff;fill-opacity:1;fill-rule:nonzero;stroke:none"
       aria-label="thomas-saigre/tikz-shields"
       transform="matrix(1.3333333,0,0,1.3333333,259.71733,198.84667)" />
  </g>
</svg>
