<?xml version="1.0" encoding="UTF-8" standalone="no"?>
<!-- Created with Inkscape (http://www.inkscape.org/) -->

<svg
   version="1.1"
   id="svg1"
   width="496.33777"
   height="104.2456"
   viewBox="0 0 496.33778 104.24559"
   sodipodi:docname="logo.svg"
   inkscape:version="1.4.2 (1:1.4.2+202505120737+ebf0e940d0)"
   xmlns:inkscape="http://www.inkscape.org/namespaces/inkscape"
   xmlns:sodipodi="http://sodipodi.sourceforge.net/DTD/sodipodi-0.dtd"
   xmlns="http://www.w3.org/2000/svg"
   xmlns:svg="http://www.w3.org/2000/svg">
  <defs
     id="defs1">
    <linearGradient
       x1="0"
       y1="0"
       x2="0"
       y2="100.00128"
       gradientUnits="userSpaceOnUse"
       id="linearGradient6">
      <stop
         style="stop-opacity:1;stop-color:#343434"
         offset="0"
         id="stop2" />
      <stop
         style="stop-opacity:1;stop-color:#343434"
         offset="0.25"
         id="stop3" />
      <stop
         style="stop-opacity:1;stop-color:#454545"
         offset="0.5"
         id="stop4" />
      <stop
         style="stop-opacity:1;stop-color:#565656"
         offset="0.75"
         id="stop5" />
      <stop
         style="stop-opacity:1;stop-color:#565656"
         offset="1"
         id="stop6" />
    </linearGradient>
    <clipPath
       clipPathUnits="userSpaceOnUse"
       id="clipPath7">
      <path
         d="m 0,2.83466 v 7.36137 C 0,11.7616 1.2691,13.0307 2.83466,13.0307 H 29.59601 V 0 H 2.83466 C 1.2691,0 0,1.2691 0,2.83466 Z"
         transform="matrix(1.3333333,0,0,-1.3333333,5.812,17.374667)"
         id="path7" />
    </clipPath>
    <linearGradient
       x1="0"
       y1="0"
       x2="0"
       y2="100.00128"
       gradientUnits="userSpaceOnUse"
       id="linearGradient12">
      <stop
         style="stop-opacity:1;stop-color:#47820a"
         offset="0"
         id="stop8" />
      <stop
         style="stop-opacity:1;stop-color:#47820a"
         offset="0.25"
         id="stop9" />
      <stop
         style="stop-opacity:1;stop-color:#5fad0d"
         offset="0.5"
         id="stop10" />
      <stop
         style="stop-opacity:1;stop-color:#77d810"
         offset="0.75"
         id="stop11" />
      <stop
         style="stop-opacity:1;stop-color:#77d810"
         offset="1"
         id="stop12" />
    </linearGradient>
    <clipPath
       clipPathUnits="userSpaceOnUse"
       id="clipPath13">
      <path
         d="m 29.59601,0 v 13.0307 h 29.61154 c 1.56555,0 2.83467,-1.2691 2.83467,-2.83467 V 2.83466 C 62.04222,1.2691 60.7731,0 59.20755,0 Z"
         transform="matrix(1.3333333,0,0,-1.3333333,5.812,17.374667)"
         id="path13" />
    </clipPath>
  </defs>
  <sodipodi:namedview
     id="namedview1"
     pagecolor="#ffffff"
     bordercolor="#000000"
     borderopacity="0.25"
     inkscape:showpageshadow="2"
     inkscape:pageopacity="0.0"
     inkscape:pagecheckerboard="0"
     inkscape:deskcolor="#d1d1d1"
     showgrid="false"
     showguides="true"
     inkscape:zoom="3.9340242"
     inkscape:cx="251.39652"
     inkscape:cy="90.619675"
     inkscape:window-width="1920"
     inkscape:window-height="1011"
     inkscape:window-x="0"
     inkscape:window-y="32"
     inkscape:window-maximized="1"
     inkscape:current-layer="g1">
    <inkscape:page
       x="0"
       y="0"
       inkscape:label="1"
       id="page1"
       width="496.33777"
       height="104.24559"
       margin="0"
       bleed="0" />
  </sodipodi:namedview>
  <g
     id="g1"
     inkscape:groupmode="layer"
     inkscape:label="1"
     transform="translate(200.9954,43.435265)">
    <path
       id="path1"
       d="m -200.9954,38.133054 v -58.890959 c 0,-12.524561 10.1528,-22.677359 22.67728,-22.677359 H 272.665 c 12.5244,0 22.67736,10.152798 22.67736,22.677359 v 58.890959 c 0,12.524478 -10.15296,22.677278 -22.67736,22.677278 h -450.98312 c -12.52448,0 -22.67728,-10.1528 -22.67728,-22.677278 z"
       style="fill:#404040;fill-opacity:1;fill-rule:nonzero;stroke:none;stroke-width:8" />
    <path
       id="path2"
       d="m -200.9954,38.133054 v -58.890959 c 0,-12.524561 10.1528,-22.677359 22.67728,-22.677359 H 35.772677 V 60.810332 H -178.31812 c -12.52448,0 -22.67728,-10.1528 -22.67728,-22.677278 z"
       style="fill:#f2f2f2;fill-opacity:1;fill-rule:nonzero;stroke:none;stroke-width:8" />
    <g
       id="g6"
       clip-path="url(#clipPath7)"
       transform="matrix(6,0,0,6,-235.8674,-43.43767)">
      <path
         d="M 0,0 H 100 V 100 H 0 Z"
         transform="matrix(0.78930667,0,0,-0.34752,-13.92268,26.063533)"
         style="fill:url(#linearGradient6);stroke:none"
         id="path6" />
    </g>
    <path
       id="path8"
       d="M 35.772677,60.810332 V -43.435264 H 272.665 c 12.5244,0 22.67736,10.152798 22.67736,22.677359 v 58.890959 c 0,12.524478 -10.15296,22.677278 -22.67736,22.677278 z"
       style="fill:#d9d9d9;fill-opacity:1;fill-rule:nonzero;stroke:none;stroke-width:8" />
    <g
       id="g12"
       clip-path="url(#clipPath13)"
       transform="matrix(6,0,0,6,-235.8674,-43.43767)">
      <path
         d="M 0,0 H 100 V 100 H 0 Z"
         transform="matrix(0.86533333,0,0,-0.34752,23.637467,26.063533)"
         style="fill:url(#linearGradient12);stroke:none"
         id="path12" />
    </g>
    <g
       id="g13"
       aria-label="TikZ"
       transform="matrix(7.9999998,0,0,7.9999998,-178.3234,38.130332)">
      <path
         id="path14"
         d="m 3.8314141,-6.211625 h 0.890625 c 0.1171875,0 0.234375,0 0.3632812,0 H 6.4095391 V -6.8561562 H 0.36266406 V -6.211625 H 1.6986016 c 0.1171875,0 0.234375,0 0.3515625,0 h 0.9023437 v 6.2109375 h 0.8789063 z m 4.5791015,-0.5625 H 7.5198906 V -5.8835 h 0.890625 z m -0.070312,2.3554688 h -0.75 v 4.4179687 h 0.75 z m 0,0"
         style="fill:#222222;fill-opacity:1;fill-rule:nonzero;stroke:none" />
      <path
         id="path15"
         d="m 12.535516,-2.7077187 2.039062,-1.7109375 h -0.890625 l -2.472656,2.0625 0.972656,-4.5585938 H 11.469109 L 9.9925469,-6.875e-4 h 0.6914061 l 0.304688,-1.4179687 0.972656,-0.8085938 1.078125,2.2265625 h 0.808594 z m 0,0"
         style="fill:#222222;fill-opacity:1;fill-rule:nonzero;stroke:none" />
      <path
         id="path16"
         d="M 20.381219,-6.5045937 V -6.91475 h -4.828125 v 0.6210938 h 1.992187 c 0.117188,0 0.234375,-0.011719 0.351563,-0.011719 h 1.359375 l -3.832031,5.87109375 V -6.875e-4 h 5.015625 v -0.65625 h -0.960938 c -0.867187,0 -1.746094,0.0234375 -2.613281,0.0234375 h -0.316406 z m 0,0"
         style="fill:#222222;fill-opacity:1;fill-rule:nonzero;stroke:none" />
    </g>
    <g
       id="g16"
       aria-label="TikZ"
       transform="matrix(7.9999998,0,0,7.9999998,-178.3234,34.594328)">
      <path
         id="path17"
         d="m 3.8314141,-6.2120078 h 0.890625 c 0.1171875,0 0.234375,0 0.3632812,0 H 6.4095391 V -6.8565391 H 0.36266406 v 0.6445313 H 1.6986016 c 0.1171875,0 0.234375,0 0.3515625,0 h 0.9023437 v 6.21093749 h 0.8789063 z m 4.5791015,-0.5625 h -0.890625 v 0.890625 h 0.890625 z m -0.070312,2.3554687 h -0.75 v 4.41796879 h 0.75 z m 0,0"
         style="fill:#ffffff;fill-opacity:1;fill-rule:nonzero;stroke:none" />
      <path
         id="path18"
         d="m 12.535516,-2.7081016 2.039062,-1.7109375 h -0.890625 l -2.472656,2.0625 0.972656,-4.5585937 h -0.714844 l -1.4765621,6.91406249 h 0.6914061 l 0.304688,-1.41796879 0.972656,-0.8085937 1.078125,2.22656249 h 0.808594 z m 0,0"
         style="fill:#ffffff;fill-opacity:1;fill-rule:nonzero;stroke:none" />
      <path
         id="path19"
         d="m 20.381219,-6.5049766 v -0.4101562 h -4.828125 v 0.6210937 h 1.992187 c 0.117188,0 0.234375,-0.011719 0.351563,-0.011719 h 1.359375 l -3.832031,5.87109374 v 0.43359375 h 5.015625 v -0.65625 h -0.960938 c -0.867187,0 -1.746094,0.0234375 -2.613281,0.0234375 h -0.316406 z m 0,0"
         style="fill:#ffffff;fill-opacity:1;fill-rule:nonzero;stroke:none" />
    </g>
    <path
       id="path20"
       d="m 83.070101,3.9060841 c -4.21875,-1.875 -7.40625,-2.5312504 -11.53125,-2.5312504 -1.96875,0 -13.21875,0 -13.21875,10.4062503 0,3.9375 2.34375,6.468748 4.3125,7.968748 2.4375,1.781252 4.21875,2.156252 8.625,3 2.8125,0.562496 7.5,1.5 7.5,5.718752 0,5.531248 -6.28125,5.531248 -7.5,5.531248 -6.46875,0 -10.96875,-3 -12.375,-3.9375 l -0.9375,5.4375 c 2.53125,1.3125 6.9375,3.46875 13.40625,3.46875 1.40625,0 5.8125,0 9.1875,-2.53125 2.53125,-1.875 3.84375,-5.0625 3.84375,-8.531248 0,-4.406252 -2.90625,-7.031252 -3.09375,-7.3125 -3.09375,-2.8125 -5.25,-3.281252 -9.28125,-4.03125 -4.3125,-0.84375 -8.0625,-1.59375 -8.0625,-5.53125 0,-4.9687505 5.8125,-4.9687505 6.84375,-4.9687505 2.53125,0 6.75,0.375 11.25,3.0937504 z M 120.92166,14.406084 c 0,-5.2500001 -1.21875,-12.5624999 -10.96875,-12.5624999 -4.875,0 -8.71875,2.5312496 -11.249997,5.7187494 V -17.187666 h -6 v 55.312498 h 6.1875 v -19.5 c 0,-5.249998 1.968747,-11.9062481 8.062497,-11.9062481 7.6875,0 7.6875,5.6250001 7.6875,8.2500001 v 23.156248 h 6.28125 z m 19.52344,-30.46875 h -7.125 v 7.125 h 7.125 z m -0.56248,18.8437501 h -6 V 38.124832 h 6 z m 39.58594,17.9062479 c 0,-2.718748 -0.0938,-8.718748 -3.1875,-13.4999985 -3.28126,-4.9687494 -8.15626,-5.8124998 -10.96874,-5.8124998 -8.90626,0 -16.03126,8.4374998 -16.03126,18.7499983 0,10.5 7.59374,18.84375 17.15626,18.84375 5.06248,0 9.56248,-1.875 12.75,-4.125 l -0.56254,-5.15625 c -4.96874,4.125 -10.21874,4.40625 -12.09374,4.40625 -6.375,0 -11.4375,-5.624998 -11.71876,-13.40625 z m -24.1875,-4.406248 c 1.21874,-6.09375 5.4375,-10.0312505 10.03126,-10.0312505 4.125,0 8.53124,2.7187504 9.56248,10.0312505 z m 39.0703,-33.46875 h -6 v 55.312498 h 6 z m 41.15624,0 h -6 V 6.2498335 c -4.21876,-3.4687494 -8.625,-4.4062494 -11.625,-4.4062494 -7.875,0 -14.0625,8.3437499 -14.0625,18.5624999 0,10.499998 6.09374,18.562498 13.6875,18.562498 2.625,0 7.3125,-0.65625 11.8125,-4.96875 v 4.125 h 6.1875 z m -6.1875,44.249998 c 0,1.125 -0.0938,2.531252 -2.625,4.875 -1.875,1.59375 -3.84376,2.15625 -5.90626,2.15625 -4.96874,0 -10.78124,-3.65625 -10.78124,-13.59375 0,-10.4999985 6.84376,-13.7812481 11.53124,-13.7812481 3.5625,0 6,1.875 7.78126,4.4062501 z M 269.46854,3.9060841 c -4.21876,-1.875 -7.40626,-2.5312504 -11.53126,-2.5312504 -1.96874,0 -13.21874,0 -13.21874,10.4062503 0,3.9375 2.34374,6.468748 4.3125,7.968748 2.4375,1.781252 4.21874,2.156252 8.625,3 2.8125,0.562496 7.5,1.5 7.5,5.718752 0,5.531248 -6.28126,5.531248 -7.5,5.531248 -6.46876,0 -10.96876,-3 -12.375,-3.9375 l -0.9375,5.4375 c 2.53124,1.3125 6.9375,3.46875 13.40624,3.46875 1.40626,0 5.8125,0 9.1875,-2.53125 2.53126,-1.875 3.84376,-5.0625 3.84376,-8.531248 0,-4.406252 -2.90626,-7.031252 -3.09376,-7.3125 -3.09374,-2.8125 -5.25,-3.281252 -9.28124,-4.03125 -4.3125,-0.84375 -8.0625,-1.59375 -8.0625,-5.53125 0,-4.9687505 5.8125,-4.9687505 6.84374,-4.9687505 2.53126,0 6.75,0.375 11.25,3.0937504 z m 0,0"
       style="fill:#305606;fill-opacity:1;fill-rule:nonzero;stroke:none;stroke-width:8"
       aria-label="shields" />
    <path
       id="path21"
       d="m 83.070101,0.36701695 c -4.21875,-1.87500005 -7.40625,-2.53124965 -11.53125,-2.53124965 -1.96875,0 -13.21875,0 -13.21875,10.4062494 0,3.9374993 2.34375,6.4687493 4.3125,7.9687493 2.4375,1.78125 4.21875,2.15625 8.625,3 2.8125,0.562496 7.5,1.5 7.5,5.71875 0,5.53125 -6.28125,5.53125 -7.5,5.53125 -6.46875,0 -10.96875,-3 -12.375,-3.9375 l -0.9375,5.4375 c 2.53125,1.3125 6.9375,3.46875 13.40625,3.46875 1.40625,0 5.8125,0 9.1875,-2.53125 2.53125,-1.875 3.84375,-5.0625 3.84375,-8.53125 0,-4.40625 -2.90625,-7.03125 -3.09375,-7.3125 -3.09375,-2.8125 -5.25,-3.28125 -9.28125,-4.03125 -4.3125,-0.84375 -8.0625,-1.59375 -8.0625,-5.5312493 0,-4.9687496 5.8125,-4.9687496 6.84375,-4.9687496 2.53125,0 6.75,0.375 11.25,3.0937496 z M 120.92166,10.867017 c 0,-5.2500003 -1.21875,-12.5625001 -10.96875,-12.5625001 -4.875,0 -8.71875,2.53125045 -11.249997,5.7187502 V -20.726732 h -6 v 55.312498 h 6.1875 v -19.5 c 0,-5.2499991 1.968747,-11.9062493 8.062497,-11.9062493 7.6875,0 7.6875,5.625 7.6875,8.2499993 v 23.15625 h 6.28125 z m 19.52344,-30.468749 h -7.125 v 7.125 h 7.125 z m -0.56248,18.84374895 h -6 V 34.585766 h 6 z M 179.46856,17.148266 c 0,-2.71875 -0.0938,-8.7187493 -3.1875,-13.4999989 -3.28126,-4.9687502 -8.15626,-5.8124998 -10.96874,-5.8124998 -8.90626,0 -16.03126,8.4374998 -16.03126,18.7499987 0,10.5 7.59374,18.84375 17.15626,18.84375 5.06248,0 9.56248,-1.875 12.75,-4.125 l -0.56248,-5.15625 c -4.96876,4.125 -10.21876,4.40625 -12.09376,4.40625 -6.375,0 -11.4375,-5.625 -11.71874,-13.40625 z m -24.1875,-4.40625 c 1.21874,-6.0937489 5.4375,-10.0312489 10.03126,-10.0312489 4.125,0 8.53124,2.7187496 9.56248,10.0312489 z m 39.07032,-33.468748 h -6 v 55.312498 h 6 z m 41.15624,0 h -6 V 2.7107671 c -4.21876,-3.46875015 -8.625,-4.4062502 -11.625,-4.4062502 -7.875,0 -14.0625,8.3437502 -14.0625,18.5624991 0,10.5 6.09376,18.5625 13.6875,18.5625 2.625,0 7.3125,-0.65625 11.8125,-4.96875 v 4.125 h 6.1875 z m -6.1875,44.249998 c 0,1.125 -0.0938,2.53125 -2.625,4.875 -1.875,1.59375 -3.84374,2.15625 -5.90624,2.15625 -4.96876,0 -10.78126,-3.65625 -10.78126,-13.59375 0,-10.4999989 6.84376,-13.7812493 11.53124,-13.7812493 3.56252,0 6,1.875 7.78126,4.4062504 z M 269.46856,0.36701695 C 265.2498,-1.5079831 262.0623,-2.1642327 257.9373,-2.1642327 c -1.96874,0 -13.21874,0 -13.21874,10.4062494 0,3.9374993 2.34374,6.4687493 4.3125,7.9687493 2.4375,1.78125 4.21874,2.15625 8.625,3 2.8125,0.562496 7.5,1.5 7.5,5.71875 0,5.53125 -6.28126,5.53125 -7.5,5.53125 -6.46876,0 -10.96876,-3 -12.375,-3.9375 l -0.9375,5.4375 c 2.53124,1.3125 6.9375,3.46875 13.40624,3.46875 1.40626,0 5.8125,0 9.1875,-2.53125 2.53126,-1.875 3.84376,-5.0625 3.84376,-8.53125 0,-4.40625 -2.90626,-7.03125 -3.09376,-7.3125 -3.09374,-2.8125 -5.25,-3.28125 -9.28124,-4.03125 -4.3125,-0.84375 -8.0625,-1.59375 -8.0625,-5.5312493 0,-4.9687496 5.8125,-4.9687496 6.84374,-4.9687496 2.53126,0 6.75,0.375 11.25,3.0937496 z m 0,0"
       style="fill:#ffffff;fill-opacity:1;fill-rule:nonzero;stroke:none;stroke-width:8"
       aria-label="shields" />
  </g>
</svg>
